<svg xmlns="http://www.w3.org/2000/svg" viewBox="0 0 740 513" role="img" aria-label="Kitty Room Builder preview">
  <rect width="740" height="513" fill="#ffd9c8"/>
  <rect y="250" width="740" height="263" fill="#d99b62"/>
  <path d="M0 250h740" stroke="#a96b44" stroke-width="8"/>
  <rect x="482" y="72" width="128" height="118" rx="18" fill="#bfefff" stroke="#fff6dc" stroke-width="16"/>
  <path d="M546 74v113M486 132h121" stroke="#fff6dc" stroke-width="10"/>
  <ellipse cx="384" cy="364" rx="132" ry="58" fill="#b98be8" opacity=".42"/>
  <rect x="188" y="206" width="188" height="122" rx="28" fill="#f7b0bf"/>
  <rect x="212" y="172" width="86" height="66" rx="22" fill="#fff2cf"/>
  <rect x="224" y="242" width="178" height="84" rx="28" fill="#f28aa6"/>
  <circle cx="556" cy="316" r="46" fill="#74c6ff"/>
  <path d="M522 286c33 20 67 19 72 56" fill="none" stroke="#fff6dc" stroke-width="10" stroke-linecap="round"/>
  <path d="M144 346c12-34 116-34 128 0l-18 36H162z" fill="#87d9b1"/>
  <circle cx="148" cy="160" r="40" fill="#f8c789"/>
  <path d="M116 132l24 14 24-14v34h-48z" fill="#f8c789"/>
  <circle cx="134" cy="158" r="5" fill="#4c342d"/>
  <circle cx="162" cy="158" r="5" fill="#4c342d"/>
  <path d="M143 174c10 8 20 8 30 0" fill="none" stroke="#4c342d" stroke-width="5" stroke-linecap="round"/>
</svg>
